<svg xmlns="http://www.w3.org/2000/svg" viewBox="0 0 1007 197"><style>@keyframes a0_t{0%,60%,to{transform:translate(225px,339.9px) scale(0,1) translate(-89.5px,-24px)}35%{transform:translate(225px,339.9px) scale(0,1) translate(-89.5px,-24px);animation-timing-function:cubic-bezier(.6,0,.4,1)}45%{transform:translate(225px,339.9px) scale(1,1) translate(-89.5px,-24px)}50%{transform:translate(225px,339.9px) scale(1,1) translate(-89.5px,-24px);animation-timing-function:cubic-bezier(.6,0,.4,1)}}@keyframes a1_t{0%,45%,to{transform:translate(225px,348.9px) scale(0,1) translate(-41.5px,-11px)}20%{transform:translate(225px,348.9px) scale(0,1) translate(-41.5px,-11px);animation-timing-function:cubic-bezier(.6,0,.4,1)}30%,35%{transform:translate(225px,348.9px) scale(1,1) translate(-41.5px,-11px)}}@keyframes a3_t{0%,10%,60%,65%,75%,to{transform:translate(225px,198.9px) rotate(-90deg)}20%{transform:translate(225px,198.9px) rotate(-90deg);animation-timing-function:cubic-bezier(.6,0,.4,1)}30%,35%,45%{transform:translate(225px,198.9px) rotate(0deg)}50%{transform:translate(225px,198.9px) rotate(0deg);animation-timing-function:cubic-bezier(.6,0,.4,1)}}@keyframes a2_t{0%{transform:translate(-200px,-167px);animation-timing-function:cubic-bezier(.6,0,.4,1)}10%,60%{transform:translate(-150px,-80px)}20%,65%{transform:translate(-150px,-80px);animation-timing-function:cubic-bezier(.6,0,.4,1)}30%{transform:translate(-200px,-123px)}35%{transform:translate(-200px,-123px);animation-timing-function:cubic-bezier(.6,0,.4,1)}45%{transform:translate(-150px,-100px)}50%{transform:translate(-150px,-100px);animation-timing-function:cubic-bezier(.6,0,.4,1)}75%,to{transform:translate(-217px,-200px)}}@keyframes a2_o{0%{opacity:0;animation-timing-function:cubic-bezier(.6,0,.4,1)}10%{opacity:1}65%{opacity:1;animation-timing-function:cubic-bezier(.6,0,.4,1)}75%,to{opacity:0}}@keyframes a2_sw{0%{stroke-width:30px;animation-timing-function:cubic-bezier(.6,0,.4,1)}10%{stroke-width:8px}65%{stroke-width:8px;animation-timing-function:cubic-bezier(.6,0,.4,1)}75%,to{stroke-width:30px}}@keyframes a2_w{0%,35%{width:400px;animation-timing-function:cubic-bezier(.6,0,.4,1)}10%,45%,50%,60%{width:300px}20%,65%{width:300px;animation-timing-function:cubic-bezier(.6,0,.4,1)}30%{width:400px}75%,to{width:434px}}@keyframes a2_h{0%{height:334px;animation-timing-function:cubic-bezier(.6,0,.4,1)}10%,60%{height:160px}20%,65%{height:160px;animation-timing-function:cubic-bezier(.6,0,.4,1)}30%{height:246px}35%{height:246px;animation-timing-function:cubic-bezier(.6,0,.4,1)}45%{height:200px}50%{height:200px;animation-timing-function:cubic-bezier(.6,0,.4,1)}75%,to{height:400px}}@keyframes a4_t{0%{transform:translate(143.5px,48.9px)}10%,to{transform:translate(180.5px,98.9px)}}@keyframes a4_w{0%{width:168.5px}10%,to{width:94.5px}}@keyframes a4_h{0%{height:302px}10%,to{height:202px}}@keyframes a5_t{0%{transform:translate(217px,324.9px);animation-timing-function:cubic-bezier(.6,0,.4,1)}10%,20%,30%,to{transform:translate(190px,324.9px)}}@keyframes a5_o{0%{opacity:0;animation-timing-function:cubic-bezier(.6,0,.4,1)}10%,20%{opacity:1}30%,to{opacity:0}}@keyframes a5_w{0%{width:16px;animation-timing-function:cubic-bezier(.6,0,.4,1)}10%,20%,30%,to{width:70px}}@keyframes a6_t{0%{transform:translate(217px,324.9px)}50%{transform:translate(217px,324.9px);animation-timing-function:cubic-bezier(.6,0,.4,1)}60%,65%,75%,to{transform:translate(190px,324.9px)}}@keyframes a6_o{0%,75%,to{opacity:0}50%{opacity:0;animation-timing-function:cubic-bezier(.6,0,.4,1)}60%{opacity:1}65%{opacity:1;animation-timing-function:cubic-bezier(.6,0,.4,1)}}@keyframes a6_w{0%{width:16px}50%{width:16px;animation-timing-function:cubic-bezier(.6,0,.4,1)}60%,65%,75%,to{width:70px}}@keyframes a7_t{0%{transform:translate(225px,198.9px) scale(1.5,1.5) translate(-42.3px,-93px);animation-timing-function:cubic-bezier(.6,0,.4,1)}10%,30%,60%{transform:translate(225px,198.9px) scale(1,1) translate(-42.3px,-93px)}20%{transform:translate(225px,198.9px) scale(1,1) translate(-42.3px,-93px);animation-timing-function:cubic-bezier(.6,0,.4,1)}25%{transform:translate(225px,198.9px) scale(.8,.8) translate(-42.3px,-93px);animation-timing-function:cubic-bezier(.6,0,.4,1)}35%,65%{transform:translate(225px,198.9px) scale(1,1) translate(-42.3px,-93px);animation-timing-function:cubic-bezier(.4,0,.6,1)}45%{transform:translate(225px,198.9px) scale(.8,.8) translate(-42.3px,-93px)}50%{transform:translate(225px,198.9px) scale(.8,.8) translate(-42.3px,-93px);animation-timing-function:cubic-bezier(.4,0,.6,1)}55%{transform:translate(225px,198.9px) scale(.7,.7) translate(-42.3px,-93px);animation-timing-function:cubic-bezier(.4,0,.6,1)}75%,to{transform:translate(225px,198.9px) scale(1.5,1.5) translate(-42.3px,-93px)}}</style><defs><symbol id="Symbol-2" overflow="visible" preserveAspectRatio="none" viewBox="0 0 111.5 186"><path fill="#d9d9d9" d="M12.5 4.5h85v8h-85zM12.5 30.5h85v8h-85zM33.5 60.5h43v8h-43zM12.5 183.5h85v-8h-85zM12.5 157.5h85v-8h-85zM33.5 127.5h43v-8h-43z"/><path fill="none" stroke="#3cc4dc" stroke-linecap="square" stroke-width="17" d="M8.5 8.5c0 53 94.5 115 94.5 169"/><path fill="none" stroke="#fb422d" stroke-linecap="square" stroke-width="17" d="M103 8.5c0 53-94.5 115-94.5 169"/></symbol><symbol id="Symbol-5" overflow="visible" preserveAspectRatio="none" viewBox="0 0 84.5 186"><path fill="#e96020" d="M74.947-5.67c0 21.39-4.281 37.95-11.774 51.06S45.51 70.23 34.272 82.65C22.498 94.38 10.188 107.49.554 125.43c-9.633 17.25-16.59 37.95-16.59 65.55H9.117c0-21.39 4.816-37.26 11.774-50.37 7.493-13.11 17.662-24.15 29.436-36.57 11.24-12.42 23.549-25.53 33.182-42.78 9.634-17.94 16.592-38.64 16.592-66.93Z"/><path fill="#2d323b" d="M7.512 161.31c-3.211 0-5.352 3.45-5.352 7.59 0 4.83 2.14 8.28 5.352 8.28h69.04c3.747 0 6.423-3.45 6.423-8.28 0-4.14-2.676-7.59-6.422-7.59ZM15.005 133.02c-3.747 0-5.352 4.14-5.352 8.28s1.605 6.9 4.817 6.9h55.125c3.211 0 5.887-3.45 5.887-7.59s-2.676-7.59-5.887-7.59ZM15.005 39.18c-3.747 0-6.423 3.45-5.887 7.59 0 4.14 2.14 7.59 5.887 7.59h54.59c3.211 0 4.817-4.14 4.817-8.28s-1.606-6.9-4.817-6.9ZM7.512 10.2c-3.211 0-6.422 3.45-6.422 7.59 0 4.83 3.21 8.28 6.422 8.28h69.04c3.747 0 5.353-3.45 5.353-7.59 0-4.83-1.606-8.28-5.352-8.28Z"/><path fill="#00a8d6" d="M-16.037-5.67c0 28.29 6.958 48.99 16.591 66.93 9.634 17.25 21.944 30.36 33.718 42.78 11.24 12.42 21.408 24.84 28.9 37.95 7.494 13.11 11.775 27.6 11.775 48.99h25.155c0-27.6-6.958-48.99-16.592-66.24S61.567 94.38 50.328 81.96C38.554 69.54 28.385 58.5 20.892 45.39 13.934 32.28 9.118 15.72 9.118-5.67Z"/></symbol></defs><path fill="#0f1116" stroke="#0f1116" stroke-width="0" d="M0 0h1007v197H0z"/><path fill="#fff" d="M83.3 106.1V40.4h17c4.2 0 7.9.8 11 2.4q4.65 2.4 7.2 6.9c1.7 2.9 2.6 6.4 2.6 10.4v26.2c0 4-.9 7.5-2.6 10.5q-2.55 4.5-7.2 6.9c-3.1 1.6-6.8 2.4-11 2.4Zm8.1-7.2h8.9q6 0 9.3-3.3c2.3-2.3 3.4-5.3 3.4-9.3V60.1c0-3.9-1.1-7-3.4-9.2q-3.3-3.3-9.3-3.3h-8.9Zm45.3 7.2v-7.4h17.5V64h-15.7v-7.4h23.8v42.1H179v7.4Zm20.7-58.4c-2 0-3.6-.5-4.7-1.5-1.2-1.1-1.7-2.4-1.7-4.2s.5-3.2 1.7-4.3c1.1-1 2.7-1.5 4.7-1.5 1.9 0 3.5.5 4.6 1.5 1.2 1.1 1.7 2.5 1.7 4.3s-.5 3.1-1.7 4.2c-1.1 1-2.7 1.5-4.6 1.5m52.6 59.1c-6 0-10.7-1.7-14.2-5.1q-5.1-5.1-5.1-13.8V74.8c0-5.9 1.7-10.5 5.1-13.9 3.5-3.3 8.2-5 14.2-5s10.7 1.7 14.2 5c3.4 3.4 5.2 8 5.2 13.8v13.2c0 5.8-1.8 10.4-5.2 13.8-3.5 3.4-8.2 5.1-14.2 5.1m0-7.2c3.5 0 6.3-1 8.3-3q3-2.85 3-8.7V74.8c0-3.9-1-6.8-3-8.8-2-1.9-4.8-2.9-8.3-2.9s-6.2 1-8.2 2.9c-2 2-3 4.9-3 8.8v13.1q0 5.85 3 8.7c2 2 4.7 3 8.2 3m31.5 6.5 17.6-25.5-16.5-24h9.5l9.8 15.3c.5.7.9 1.4 1.2 2.2.4.7.8 1.4 1 1.8.2-.4.5-1.1.8-1.8.4-.8.8-1.5 1.3-2.2l9.9-15.3h9.4L269 80.7l17.5 25.4H277l-10.7-16.2c-.4-.7-.8-1.4-1.2-2.3s-.7-1.6-1-2.1c-.2.5-.6 1.2-1 2.1-.5.9-1 1.6-1.4 2.3L251 106.1Zm76.4.9c-5.7 0-10.2-1.7-13.7-5.1q-5.1-5.1-5.1-13.8V56.6h8.1v31.5c0 3.7 1 6.6 2.9 8.7s4.5 3.1 7.8 3.1c3.4 0 6-1 8-3.1 1.9-2.1 2.9-5 2.9-8.7V56.6h8.1v31.5c0 5.8-1.7 10.4-5.2 13.8q-5.25 5.1-13.8 5.1m52.6-.2c-5.1 0-9.3-1.2-12.5-3.5-3.3-2.3-4.9-5.5-4.9-9.6h8.3c0 1.8.9 3.3 2.6 4.3 1.8 1.1 4 1.6 6.6 1.6h3.8c3.2 0 5.6-.6 7.1-1.9 1.6-1.3 2.4-3 2.4-5.2 0-2.1-.8-3.8-2.2-5-1.5-1.2-3.6-2-6.4-2.5l-6.6-1c-5-.9-8.6-2.4-10.9-4.7-2.4-2.3-3.5-5.5-3.5-9.5 0-4.5 1.4-7.9 4.3-10.3q4.35-3.6 12.6-3.6h3.4c5 0 9.1 1.1 12.1 3.4 3 2.2 4.6 5.2 4.6 8.9H383c0-1.6-.8-2.8-2.3-3.7-1.5-1-3.6-1.4-6.3-1.4H371c-2.8 0-5 .6-6.5 1.7-1.5 1.2-2.3 2.9-2.3 5 0 3.6 2.5 5.8 7.6 6.7l6.7 1.1c5.3.8 9.2 2.4 11.7 4.6q3.6 3.45 3.6 9.9c0 4.6-1.5 8.2-4.4 10.8q-4.35 3.9-13.2 3.9ZM91 164c-2 0-3.6-.6-4.7-1.7s-1.6-2.7-1.6-4.6v-15.9h2.7v15.9c0 1.2.3 2.2.9 2.8.6.7 1.5 1.1 2.7 1.1s2.1-.4 2.7-1.1.9-1.6.9-2.8v-15.9h2.7v15.9c0 2-.5 3.5-1.6 4.6S93.1 164 91 164m17.5-.1c-1.7 0-3.1-.3-4.2-1.1s-1.6-1.9-1.6-3.2h2.8c0 .6.3 1.1.8 1.4.6.4 1.4.5 2.2.5h1.3q1.65 0 2.4-.6c.5-.4.8-1 .8-1.7s-.3-1.3-.8-1.7-1.2-.7-2.1-.8l-2.2-.4q-2.55-.45-3.6-1.5c-.8-.8-1.2-1.9-1.2-3.2 0-1.5.5-2.6 1.4-3.4q1.5-1.2 4.2-1.2h1.2c1.6 0 3 .3 4 1.1q1.5 1.05 1.5 3h-2.7c0-.6-.3-1-.8-1.3s-1.2-.4-2.1-.4h-1.1c-1 0-1.7.2-2.2.5-.5.4-.8 1-.8 1.7 0 1.2.9 1.9 2.6 2.2l2.2.4q2.7.45 3.9 1.5 1.2 1.2 1.2 3.3 0 2.4-1.5 3.6c-.9.9-2.4 1.3-4.4 1.3Zm18.5.1c-1.3 0-2.4-.3-3.4-.8s-1.7-1.2-2.3-2.2c-.5-.9-.8-2-.8-3.3v-4.5c0-1.3.3-2.4.8-3.3.6-1 1.3-1.7 2.3-2.2s2.1-.8 3.4-.8 2.4.3 3.4.8 1.7 1.2 2.3 2.2c.5.9.8 2 .8 3.3l-.1 2.9h-10.2v1.6c0 1.3.3 2.3 1 3 .6.7 1.6 1 2.8 1 1 0 1.9-.2 2.5-.5.7-.4 1-1 1.2-1.7h2.7c-.2 1.4-.9 2.5-2 3.3-1.2.8-2.7 1.2-4.4 1.2m-3.8-9.9h7.6v-.9c0-1.3-.3-2.3-1-3-.6-.7-1.6-1-2.8-1s-2.2.3-2.8 1c-.7.7-1 1.7-1 3Zm16.1 9.6v-16.5h2.7v3.2c.1-1.1.6-2 1.4-2.6q1.05-.9 3-.9c1.7 0 3.1.5 4.1 1.6q1.5 1.65 1.5 4.5v1.1h-2.7v-.9c0-1.3-.3-2.2-.9-2.9-.7-.7-1.6-1.1-2.8-1.1-2.4 0-3.6 1.4-3.6 4v10.5Zm35.8 0v-2.5h4.5v-16.9h-4.5v-2.5h11.8l-.1 2.5h-4.4v16.9h4.4v2.5Zm17.7 0v-16.5h2.7v3.2c.1-1.1.6-2 1.3-2.6.8-.6 1.8-.9 3.1-.9 1.6 0 3 .5 3.9 1.5 1 1.1 1.5 2.4 1.5 4.2v11.1h-2.7v-10.8q0-1.8-.9-2.7c-.7-.6-1.5-1-2.6-1s-2 .4-2.7 1.1c-.6.6-.9 1.6-.9 2.9v10.5Zm26 0c-1.4 0-2.4-.4-3.3-1.2-.8-.8-1.2-1.8-1.2-3.1v-9.7h-4.7v-2.5h4.7v-4.7h2.7v4.7h6.6v2.5H217v9.7c0 .5.2 1 .5 1.3.3.4.8.5 1.3.5h4.5v2.5Zm16.2.3c-1.3 0-2.4-.3-3.4-.8s-1.7-1.2-2.3-2.2c-.5-.9-.7-2-.7-3.3v-4.5c0-1.3.2-2.4.7-3.3.6-1 1.3-1.7 2.3-2.2s2.1-.8 3.4-.8 2.4.3 3.4.8 1.7 1.2 2.3 2.2c.5.9.8 2 .8 3.3l-.1 2.9h-10.2v1.6c0 1.3.3 2.3 1 3 .6.7 1.6 1 2.8 1 1 0 1.9-.2 2.5-.5.7-.4 1-1 1.2-1.7h2.7c-.2 1.4-.9 2.5-2 3.3-1.2.8-2.7 1.2-4.4 1.2m-3.8-9.9h7.6v-.9c0-1.3-.3-2.3-1-3-.6-.7-1.6-1-2.8-1s-2.2.3-2.8 1c-.7.7-1 1.7-1 3Zm16.1 9.6v-16.5h2.7v3.2c.1-1.1.6-2 1.4-2.6q1.05-.9 3-.9c1.7 0 3.1.5 4.1 1.6q1.5 1.65 1.5 4.5v1.1h-2.7v-.9c0-1.3-.3-2.2-.9-2.9-.7-.7-1.6-1.1-2.8-1.1-2.4 0-3.6 1.4-3.6 4v10.5Zm21.3 0v-12.4h-4.8v-2.4h4.8V146c0-1.3.4-2.3 1.2-3.1.9-.7 2-1.1 3.4-1.1h4.9v2.5h-4.9c-1.3 0-1.9.5-1.9 1.7v2.9h6.8v2.4h-6.8v12.4Zm19 .3c-1.8 0-3.1-.4-4.1-1.3q-1.5-1.35-1.5-3.6c0-1.6.5-2.8 1.5-3.7s2.3-1.3 4-1.3h5.1v-1.6q0-1.5-.9-2.4c-.6-.5-1.5-.8-2.5-.8s-1.8.2-2.5.6c-.6.4-1 1-1.2 1.7h-2.7c.1-1 .4-1.8 1-2.5s1.3-1.2 2.2-1.6c1-.4 2-.6 3.2-.6q2.85 0 4.5 1.5c1.1 1 1.6 2.3 1.6 4v11.3h-2.6v-3.1h-.1c-.1 1-.6 1.9-1.5 2.5s-2.1.9-3.5.9m.6-2.1c1.3 0 2.4-.3 3.2-1q1.2-.9 1.2-2.4v-2.4h-5c-.9 0-1.6.3-2.2.8-.5.5-.7 1.1-.7 2s.3 1.6.9 2.2c.6.5 1.5.8 2.6.8m18.9 2.1c-2 0-3.6-.6-4.8-1.7s-1.7-2.6-1.7-4.6v-4.5c0-2 .5-3.5 1.7-4.6s2.8-1.7 4.8-1.7c1.9 0 3.5.5 4.6 1.5q1.8 1.5 1.8 4.2h-2.7c0-1.1-.4-1.9-1-2.4q-1.05-.9-2.7-.9c-1.2 0-2.1.3-2.8 1s-1.1 1.6-1.1 2.9l.1 4.5c-.1 1.2.3 2.2 1 2.9s1.6 1 2.8 1q1.65 0 2.7-.9c.6-.6 1-1.4 1-2.4h2.7q0 2.7-1.8 4.2c-1.1 1-2.7 1.5-4.6 1.5m17.9 0c-1.3 0-2.4-.3-3.4-.8s-1.7-1.2-2.3-2.2c-.5-.9-.7-2-.7-3.3v-4.5c0-1.3.2-2.4.7-3.3.6-1 1.3-1.7 2.3-2.2s2.1-.8 3.4-.8 2.4.3 3.4.8 1.7 1.2 2.3 2.2c.5.9.8 2 .8 3.3v2.9h-10.3v1.6c0 1.3.3 2.3 1 3 .6.7 1.6 1 2.8 1 1 0 1.9-.2 2.5-.5.7-.4 1.1-1 1.2-1.7h2.7c-.2 1.4-.9 2.5-2 3.3-1.2.8-2.7 1.2-4.4 1.2m-3.8-9.9h7.6v-.9c0-1.3-.3-2.3-1-3-.6-.7-1.6-1-2.8-1s-2.2.3-2.8 1c-.7.7-1 1.7-1 3Zm21.3 9.8c-1.7 0-3.1-.3-4.2-1.1s-1.6-1.9-1.6-3.2h2.8c0 .6.3 1.1.8 1.4.6.4 1.4.5 2.3.5h1.2q1.65 0 2.4-.6c.5-.4.8-1 .8-1.7s-.3-1.3-.8-1.7-1.2-.7-2.1-.8l-2.2-.4c-1.6-.3-2.9-.8-3.6-1.5-.8-.8-1.2-1.9-1.2-3.2 0-1.5.5-2.6 1.4-3.4q1.5-1.2 4.2-1.2h1.2c1.7 0 3 .3 4 1.1q1.5 1.05 1.5 3h-2.7c0-.6-.3-1-.8-1.3s-1.2-.4-2.1-.4h-1.1c-1 0-1.7.2-2.2.5-.5.4-.8 1-.8 1.7 0 1.2.9 1.9 2.6 2.2l2.2.4q2.7.45 3.9 1.5 1.2 1.2 1.2 3.3 0 2.4-1.5 3.6c-.9.9-2.4 1.3-4.3 1.3Zm38.3-.2c-1.4 0-2.4-.4-3.3-1.2-.8-.8-1.2-1.8-1.2-3.2v-9.6h-4.6v-2.5h4.6v-4.7h2.7v4.7h6.6v2.5H379v9.6c0 .6.2 1.1.5 1.4.3.4.8.5 1.3.5h4.5v2.5Zm10 0v-21.9h2.7v8.6c.1-1.2.6-2 1.3-2.6.8-.6 1.8-.9 3.1-.9 1.6 0 3 .5 3.9 1.5 1 1.1 1.5 2.4 1.5 4.2v11.1h-2.7v-10.8q0-1.8-.9-2.7c-.7-.7-1.5-1-2.6-1s-2 .3-2.7 1q-.9 1.05-.9 3v10.5Zm22.8.3c-1.8 0-3.1-.4-4.1-1.3s-1.5-2.1-1.5-3.7q0-2.25 1.5-3.6c1-.9 2.3-1.3 4-1.3h5.1v-1.7c0-1-.3-1.7-.9-2.3s-1.5-.8-2.5-.8-1.8.2-2.5.6c-.6.4-1 1-1.2 1.7h-2.7c.1-1 .4-1.8 1-2.5s1.3-1.2 2.2-1.6c1-.4 2-.6 3.2-.6q2.85 0 4.5 1.5c1.1 1 1.6 2.3 1.6 4v11.3h-2.6v-3.2h-.1c-.1 1.1-.6 1.9-1.5 2.6-.9.6-2.1.9-3.5.9m.6-2.1c1.3 0 2.4-.4 3.2-1s1.2-1.5 1.2-2.5v-2.3h-5c-.9 0-1.6.3-2.2.8-.5.5-.7 1.1-.7 2s.3 1.6.9 2.2c.6.5 1.5.8 2.6.8m20.6 1.8c-1.4 0-2.4-.4-3.3-1.2-.8-.8-1.2-1.8-1.2-3.2v-9.6h-4.6v-2.5h4.6v-4.7h2.7v4.7h6.6v2.5H433v9.6c0 .6.2 1.1.5 1.4.3.4.8.5 1.3.5h4.5v2.5Zm28.5 0v-16.5h2.7v3.1c.1-1.1.6-1.9 1.4-2.5q1.05-.9 3-.9c1.7 0 3.1.5 4.1 1.6q1.5 1.65 1.5 4.5v1.1h-2.7v-.9c0-1.3-.3-2.2-.9-2.9-.7-.7-1.6-1.1-2.8-1.1-2.4 0-3.6 1.4-3.6 4v10.5Zm23.7.3c-1.9 0-3.4-.6-4.6-1.7-1.1-1.1-1.7-2.7-1.7-4.6v-10.5h2.7v10.5c0 1.2.3 2.2 1 2.9.6.7 1.5 1 2.6 1s2-.3 2.6-1c.7-.7 1-1.7 1-2.9v-10.5h2.7v10.5c0 1.9-.6 3.5-1.7 4.6-1.2 1.1-2.7 1.7-4.6 1.7m11.8-.3v-16.5h2.7v3.1c.1-1.1.6-1.9 1.3-2.5.8-.6 1.8-.9 3.1-.9q2.4 0 3.9 1.5t1.5 4.2v11.1h-2.7v-10.8q0-1.8-.9-2.7c-.7-.6-1.5-1-2.6-1s-2 .4-2.7 1.1c-.6.6-.9 1.6-.9 2.9v10.5Zm40.8.3c-1.8 0-3.2-.4-4.2-1.3s-1.5-2.1-1.5-3.7q0-2.25 1.5-3.6c1-.9 2.4-1.3 4.1-1.3h5.1v-1.7c0-1-.3-1.7-.9-2.3s-1.5-.8-2.6-.8q-1.35 0-2.4.6c-.6.4-1.1 1-1.2 1.6h-2.7c.1-.9.4-1.7 1-2.4s1.3-1.2 2.2-1.6c1-.4 2-.6 3.1-.6q2.85 0 4.5 1.5c1.1.9 1.7 2.3 1.7 4v11.3h-2.6v-3.2h-.1c-.1 1.1-.6 1.9-1.5 2.6-.9.6-2.1.9-3.5.9m.6-2.1c1.3 0 2.3-.4 3.2-1 .8-.6 1.2-1.5 1.2-2.5v-2.3h-5c-.9 0-1.7.3-2.2.8s-.8 1.1-.8 2 .4 1.6 1 2.2c.6.5 1.5.8 2.6.8m12.6 1.8v-16.5h2.7v3.1c.1-1.1.6-1.9 1.3-2.5.8-.6 1.8-.9 3.1-.9q2.4 0 3.9 1.5t1.5 4.2v11.1h-2.7v-10.8q0-1.8-.9-2.7c-.7-.6-1.5-1-2.6-1s-2 .4-2.7 1.1c-.6.6-.9 1.6-.9 2.9v10.5Zm20.6 5.4 2.4-6.4-6.3-15.5h2.9l4.1 10.2c.1.3.2.7.4 1.2q.15.75.3 1.2.15-.45.3-1.2c.1-.5.3-.9.4-1.2l3.8-10.2h2.8l-8.3 21.9Zm16.3-5.4-2.7-16.5h2.4l1.6 11.7c.1.4.2.9.2 1.4.1.5.1 1 .1 1.3h.2c0-.3 0-.8.1-1.3s.1-1 .2-1.4l1.8-11.7h2.7l1.9 11.7c.1.4.1.9.2 1.4s.1 1 .1 1.3h.2c0-.3.1-.8.1-1.3.1-.5.2-1 .2-1.4l1.7-11.7h2.2l-2.7 16.5h-3l-1.8-11.4c0-.6-.1-1.1-.2-1.7-.1-.5-.1-1-.2-1.3h-.1c0 .3-.1.8-.1 1.3-.1.6-.2 1.1-.3 1.7l-1.8 11.4Zm17.1 0v-21.9h2.7v8.5c.1-1.1.6-1.9 1.3-2.5.8-.6 1.8-.9 3.1-.9q2.4 0 3.9 1.5t1.5 4.2v11.1h-2.7v-10.8q0-1.8-.9-2.7c-.7-.7-1.5-1-2.6-1s-2 .3-2.7 1q-.9 1.05-.9 3v10.5Zm24.2.3c-1.3 0-2.4-.3-3.4-.8s-1.7-1.2-2.3-2.2c-.5-.9-.8-2-.8-3.3v-4.5c0-1.3.3-2.4.8-3.3.6-1 1.3-1.7 2.3-2.2s2.1-.8 3.4-.8 2.4.3 3.4.8 1.7 1.2 2.3 2.2c.5.9.7 2 .7 3.3v2.9h-10.2v1.6c0 1.3.3 2.3 1 3 .6.7 1.6 1 2.8 1 1 0 1.9-.2 2.5-.5.7-.4 1-1 1.2-1.7h2.7c-.2 1.4-.9 2.5-2 3.3-1.2.8-2.7 1.2-4.4 1.2m-3.8-9.9h7.6v-.9c0-1.3-.3-2.3-1-3-.6-.7-1.6-1.1-2.8-1.1s-2.2.4-2.8 1.1c-.7.7-1 1.7-1 3Zm16.1 9.6v-16.5h2.7v3.1c.1-1.1.6-1.9 1.3-2.5.8-.6 1.8-.9 3.1-.9 1.7 0 3.1.5 4.1 1.6q1.5 1.65 1.5 4.5v1.1h-2.7v-.9c0-1.3-.3-2.2-.9-2.9-.7-.7-1.6-1.1-2.8-1.1-2.4 0-3.6 1.4-3.6 4v10.5Zm23.7.3c-1.3 0-2.4-.3-3.4-.8s-1.7-1.2-2.3-2.2c-.5-.9-.8-2-.8-3.3v-4.5c0-1.3.3-2.4.8-3.3.6-1 1.3-1.7 2.3-2.2s2.1-.8 3.4-.8 2.4.3 3.4.8 1.7 1.2 2.3 2.2c.5.9.7 2 .7 3.3v2.9h-10.2v1.6c0 1.3.3 2.3 1 3 .6.7 1.6 1 2.8 1 1 0 1.9-.2 2.5-.5.7-.4 1-1 1.2-1.7h2.7c-.2 1.4-.9 2.5-2 3.3-1.2.8-2.7 1.2-4.4 1.2m-3.8-9.9h7.6v-.9c0-1.3-.3-2.3-1-3-.6-.7-1.6-1.1-2.8-1.1s-2.2.4-2.8 1.1c-.7.7-1 1.7-1 3Z"/><g transform="matrix(.43111 0 0 .44025 758.008 10.418)"><path fill="#e0e0e0" stroke="#e0e0e0" stroke-linejoin="round" stroke-width="10" d="M-50.7 4h287.2l41 40h-376l38.8-40z" style="animation:10s linear infinite both a0_t" transform="matrix(0 0 0 1 225 315.9)"/><rect width="83" height="22" fill="#e0e0e0" stroke="#fb422d" stroke-width="0" rx="2" style="animation:10s linear infinite both a1_t" transform="matrix(0 0 0 1 225 337.9)"/><g style="animation:10s linear infinite both a7_t"><path fill="#e96020" d="M273.97 50.895c0 32.085-6.422 56.925-17.66 76.59-11.24 19.665-26.493 37.26-43.352 55.89-17.662 17.595-36.126 37.26-50.576 64.17-14.45 25.875-24.887 56.925-24.887 98.325h37.731c0-32.085 7.226-55.89 17.662-75.555 11.24-19.665 26.492-36.225 44.154-54.855 16.859-18.63 35.323-38.295 49.774-64.17 14.45-26.91 24.886-57.96 24.886-100.395Z"/><path fill="#2d323b" d="M172.818 301.365c-4.817 0-8.028 5.175-8.028 11.385 0 7.245 3.211 12.42 8.028 12.42h103.561c5.62 0 9.634-5.175 9.634-12.42 0-6.21-4.014-11.385-9.634-11.385ZM184.057 258.93c-5.62 0-8.028 6.21-8.028 12.42s2.409 10.35 7.225 10.35h82.689c4.817 0 8.83-5.175 8.83-11.385s-4.013-11.385-8.83-11.385ZM184.057 118.17c-5.62 0-9.633 5.175-8.83 11.385 0 6.21 3.21 11.385 8.83 11.385h81.886c4.817 0 7.225-6.21 7.225-12.42s-2.408-10.35-7.225-10.35ZM172.818 74.7c-4.817 0-9.634 5.175-9.634 11.385 0 7.245 4.817 12.42 9.634 12.42h103.561c5.62 0 8.028-5.175 8.028-11.385 0-7.245-2.408-12.42-8.028-12.42Z"/><path fill="#00a8d6" d="M137.495 50.895c0 42.435 10.436 73.485 24.887 100.395 14.45 25.875 32.914 45.54 50.576 64.17 16.859 18.63 32.112 37.26 43.351 56.925 11.24 19.665 17.662 41.4 17.662 73.485h37.731c0-41.4-10.436-73.485-24.886-99.36s-32.915-45.54-49.774-64.17c-17.662-18.63-32.915-35.19-44.154-54.855-10.436-19.665-17.662-44.505-17.662-76.59Z"/></g></g></svg>