<svg xmlns="http://www.w3.org/2000/svg" fill="none" class="logo-text" viewBox="0 0 146 30"><path fill="currentColor" d="M134.587 29.508q-3.233 0-5.691-1.035-2.414-1.078-3.751-2.974-1.336-1.898-1.336-4.484 0-2.501 1.336-4.269 1.38-1.767 3.794-2.716 2.458-.948 5.648-.948 3.277 0 5.648 1.034 2.415.992 3.751 2.76 1.38 1.767 1.38 4.095 0 2.63-1.337 4.57-1.336 1.898-3.751 2.932t-5.691 1.035m0-4.484q2.372 0 3.794-1.12 1.423-1.122 1.423-3.191 0-1.38-.647-2.328-.646-.993-1.81-1.51t-2.76-.517q-2.371 0-3.794 1.164-1.423 1.122-1.423 3.234 0 1.983 1.423 3.147 1.423 1.122 3.794 1.121m0-24.532q2.976 0 5.174.992 2.242.948 3.449 2.759 1.251 1.81 1.251 4.268 0 2.286-1.251 3.967-1.25 1.638-3.449 2.587-2.198.905-5.174.905-2.932 0-5.173-.905-2.199-.906-3.45-2.544-1.206-1.682-1.207-4.01 0-2.414 1.207-4.182 1.251-1.81 3.45-2.802 2.241-1.035 5.173-1.035m0 4.484q-2.027 0-3.233.992-1.208.99-1.208 2.802 0 1.81 1.208 2.846 1.206 1.035 3.233 1.034 2.026 0 3.234-1.034 1.207-1.035 1.207-2.846 0-1.854-1.207-2.802-1.208-.992-3.234-.992M109.614 28.862V6.054h2.802v22.808zm2.802-13.107h-1.336q.215-3.406 1.379-5.648 1.164-2.286 2.975-3.406 1.81-1.12 4.01-1.121.646 0 1.207.13.56.128.862.344v2.544a4.5 4.5 0 0 0-1.034-.259 8.5 8.5 0 0 0-1.208-.086q-1.767 0-3.061.604a6 6 0 0 0-2.112 1.681 7 7 0 0 0-1.294 2.371q-.387 1.337-.388 2.846M94.076 29.336q-3.19 0-5.476-1.423-2.284-1.423-3.492-4.053-1.207-2.673-1.207-6.38 0-3.88 1.207-6.51 1.25-2.63 3.535-4.01t5.433-1.38q3.19 0 5.432 1.423 2.286 1.422 3.493 4.095t1.207 6.382q0 3.837-1.25 6.467-1.207 2.63-3.493 4.01-2.24 1.38-5.39 1.38m0-2.414q3.535 0 5.39-2.458 1.896-2.457 1.896-6.984t-1.897-6.985q-1.896-2.5-5.39-2.5-3.534 0-5.431 2.457t-1.898 7.028q0 4.483 1.898 6.984 1.94 2.458 5.432 2.458M73.288 22.61V.794h2.802V22.61q0 2.241.863 3.32.904 1.035 3.492 1.034h.69v2.027q-.259.129-.776.172-.518.043-1.121.043-3.105 0-4.527-1.595t-1.423-5.001m-3.45-14.314V6.054h11.34v2.242zM67.475 13.772h-2.803q-.517-2.846-2.328-4.312-1.767-1.466-4.354-1.466-3.492 0-5.347 2.458-1.854 2.457-1.854 7.028 0 4.526 1.897 6.984 1.941 2.458 5.433 2.458 2.586 0 4.355-1.38 1.767-1.423 2.37-4.225h2.803q-.819 4.225-3.406 6.122-2.544 1.897-6.208 1.897-3.149 0-5.433-1.423-2.241-1.423-3.449-4.053-1.207-2.673-1.207-6.38 0-3.88 1.207-6.51t3.45-4.01q2.284-1.38 5.389-1.38 2.5 0 4.483.948 1.984.906 3.277 2.76 1.337 1.81 1.725 4.484M42.322 15.755l-1.552 1.509q0-4.398-1.897-6.812-1.896-2.458-5.303-2.458-3.492 0-5.39 2.458-1.853 2.457-1.853 7.028 0 4.483 1.94 6.984 1.983 2.458 5.519 2.458 2.716 0 4.527-1.38 1.854-1.38 2.543-4.096h2.89q-.95 4.01-3.58 5.95t-6.38 1.94q-3.234 0-5.562-1.423-2.285-1.423-3.536-4.053-1.206-2.673-1.207-6.38 0-3.88 1.207-6.51 1.25-2.63 3.493-4.01 2.285-1.38 5.39-1.38 3.146 0 5.388 1.423 2.243 1.38 3.45 3.966 1.206 2.544 1.207 6.166v.776H24.688v-2.156zM8.953 28.861.286 6.054h3.019l6.898 18.625.82 2.544h-.475l.776-2.544 6.898-18.625h2.803L12.359 28.86z"/></svg>