<svg xmlns="http://www.w3.org/2000/svg" fill="none" class="logo-icon" viewBox="0 0 66 32"><g clip-path="url(#a)"><path fill="url(#b)" d="m30.253 19.6 4.93-4.93 1.07-1.07 6.732 6.733.979.979a7.54 7.54 0 1 0 10.664-10.664 7.7 7.7 0 0 0-2.8-1.846c.29.046.577.169.866.23a11.798 11.798 0 0 1-2.755 22.952c-.211 0-.423.013-.634.013q-1.27.002-2.525-.198-.3-.05-.602-.107a15.94 15.94 0 0 1-8.198-4.383z"/><path fill="url(#c)" d="m34.79 12.387-4.924 4.924-1.07 1.07-6.724-6.725-.977-.976a7.532 7.532 0 1 0-10.653 10.65 8.2 8.2 0 0 0 2.908 1.873c-.29-.046-.688-.2-.977-.267A11.784 11.784 0 0 1 15.126.01h.63a16 16 0 0 1 3.125.307 15.9 15.9 0 0 1 8.184 4.379z"/><path fill="url(#d)" d="M0 16A16 16 0 0 1 16.003 0h.093a11.747 11.747 0 0 0-1.452 23.406q.212.042.425.067a7.6 7.6 0 0 0 1.929-.01h.163a7.5 7.5 0 0 0 3.744-1.734c.14-.123.268-.248.407-.382l.974-.977 4.351-4.349v-.013l.645-.642 5.35-5.35h.013l5.328-5.325A15.94 15.94 0 0 1 49.287.005c.251 0 .5 0 .751.02 1.339.059 2.664.287 3.945.678a15.997 15.997 0 0 1-4.054 31.294 11.784 11.784 0 0 0 .337-23.454l-.148-.016a6 6 0 0 0-.535-.04H49.3c-.86 0-1.715.145-2.528.43-.812.291-1.569.72-2.236 1.268L37.61 17.11l-4.922 4.924-.029-.03-5.341 5.31A16.03 16.03 0 0 1 9.985 30.83 15.99 15.99 0 0 1 .003 16z"/></g><defs><linearGradient id="b" x1="60.255" x2="32.853" y1="16.77" y2="26.744" gradientUnits="userSpaceOnUse"><stop stop-color="#E50000"/><stop offset=".5" stop-color="#E59400"/><stop offset="1" stop-color="#E5E500"/></linearGradient><linearGradient id="c" x1="32.19" x2="4.82" y1="5.25" y2="15.211" gradientUnits="userSpaceOnUse"><stop stop-color="#E5E500"/><stop offset=".2" stop-color="#00E500"/><stop offset="1" stop-color="#0000E5"/></linearGradient><linearGradient id="d" x1="62.377" x2="2.907" y1="5.178" y2="26.825" gradientUnits="userSpaceOnUse"><stop stop-color="#F66"/><stop offset=".15" stop-color="#FFC966"/><stop offset=".3" stop-color="#FF6"/><stop offset=".5" stop-color="#6F6"/><stop offset=".7" stop-color="#6FD3F6"/><stop offset=".85" stop-color="#66F"/><stop offset="1" stop-color="#C0C"/></linearGradient><clipPath id="a"><path fill="currentColor" d="M0 0h65.287v32H0z"/></clipPath></defs></svg>